<svg xmlns="http://www.w3.org/2000/svg" width="640" height="432" viewBox="0 0 640 432" role="img" aria-label="Open Source Impact Card — X33834">
  <defs><linearGradient id="bg" x1="0" y1="0" x2="0" y2="1"><stop offset="0" stop-color="#070B1E"/><stop offset="0.5" stop-color="#0B1026"/><stop offset="1" stop-color="#141C36"/></linearGradient><radialGradient id="nebG" cx="0.84" cy="0.10" r="0.62"><stop offset="0" stop-color="#C9A86A" stop-opacity="0.16"/><stop offset="1" stop-color="#070B1E" stop-opacity="0"/></radialGradient><radialGradient id="nebB" cx="0.10" cy="0.92" r="0.60"><stop offset="0" stop-color="#2B4B9E" stop-opacity="0.22"/><stop offset="1" stop-color="#070B1E" stop-opacity="0"/></radialGradient><radialGradient id="glow" cx="0.5" cy="0.42" r="0.72"><stop offset="0" stop-color="#C9A86A" stop-opacity="0.1"/><stop offset="1" stop-color="#070B1E" stop-opacity="0"/></radialGradient><pattern id="fil1" width="26.0" height="13.0" patternUnits="userSpaceOnUse"><path d="M13.0 0 L26.0 13.0 L13.0 26.0 L0 13.0 Z" fill="none" stroke="#C9A86A" stroke-width="0.5" opacity="0.05"/><circle cx="13.0" cy="13.0" r="0.55" fill="#C9A86A" opacity="0.08000000000000002"/><circle cx="0" cy="0" r="0.35" fill="#C9A86A" opacity="0.05"/></pattern></defs><rect width="640" height="432" fill="url(#bg)"/><rect width="640" height="432" fill="url(#nebG)"/><rect width="640" height="432" fill="url(#nebB)"/><rect width="640" height="432" fill="url(#glow)"/><rect width="640" height="432" fill="url(#fil1)"/><circle cx="24" cy="30" r="1.4" fill="#F5F0E6" opacity="0.35"/><circle cx="47" cy="74" r="1.1" fill="#F5F0E6" opacity="0.35"/><circle cx="72" cy="28" r="1.5" fill="#F5F0E6" opacity="0.35"/><circle cx="95" cy="58" r="1.2" fill="#F5F0E6" opacity="0.35"/><circle cx="121" cy="88" r="1" fill="#F5F0E6" opacity="0.35"/><circle cx="148" cy="42" r="1.3" fill="#F5F0E6" opacity="0.35"/><circle cx="172" cy="70" r="1.1" fill="#F5F0E6" opacity="0.35"/><circle cx="196" cy="32" r="1.5" fill="#F5F0E6" opacity="0.35"/><circle cx="221" cy="64" r="1.2" fill="#F5F0E6" opacity="0.35"/><circle cx="247" cy="24" r="1" fill="#F5F0E6" opacity="0.35"/><circle cx="269" cy="82" r="1.4" fill="#F5F0E6" opacity="0.35"/><circle cx="294" cy="46" r="1.1" fill="#F5F0E6" opacity="0.35"/><circle cx="318" cy="26" r="1.5" fill="#F5F0E6" opacity="0.35"/><circle cx="343" cy="76" r="1.2" fill="#F5F0E6" opacity="0.35"/><circle cx="369" cy="52" r="1" fill="#F5F0E6" opacity="0.35"/><circle cx="394" cy="34" r="1.4" fill="#F5F0E6" opacity="0.35"/><circle cx="419" cy="72" r="1.1" fill="#F5F0E6" opacity="0.35"/><circle cx="445" cy="28" r="1.5" fill="#F5F0E6" opacity="0.35"/><circle cx="471" cy="60" r="1.2" fill="#F5F0E6" opacity="0.35"/><circle cx="495" cy="40" r="1" fill="#F5F0E6" opacity="0.35"/><circle cx="522" cy="78" r="1.4" fill="#F5F0E6" opacity="0.35"/><circle cx="546" cy="30" r="1.1" fill="#F5F0E6" opacity="0.35"/><circle cx="572" cy="64" r="1.5" fill="#F5F0E6" opacity="0.35"/><circle cx="597" cy="44" r="1.2" fill="#F5F0E6" opacity="0.35"/><circle cx="622" cy="34" r="1" fill="#F5F0E6" opacity="0.35"/><circle cx="34" cy="116" r="1" fill="#F5F0E6" opacity="0.35"/><circle cx="88" cy="108" r="1.3" fill="#F5F0E6" opacity="0.35"/><circle cx="141" cy="122" r="1.1" fill="#F5F0E6" opacity="0.35"/><circle cx="197" cy="106" r="1.4" fill="#F5F0E6" opacity="0.35"/><circle cx="252" cy="118" r="1" fill="#F5F0E6" opacity="0.35"/><circle cx="307" cy="108" r="1.3" fill="#F5F0E6" opacity="0.35"/><circle cx="364" cy="124" r="1.1" fill="#F5F0E6" opacity="0.35"/><circle cx="421" cy="104" r="1.4" fill="#F5F0E6" opacity="0.35"/><circle cx="478" cy="120" r="1" fill="#F5F0E6" opacity="0.35"/><circle cx="536" cy="110" r="1.3" fill="#F5F0E6" opacity="0.35"/><circle cx="596" cy="122" r="1.1" fill="#F5F0E6" opacity="0.35"/><circle cx="26" cy="164" r="1.2" fill="#F5F0E6" opacity="0.35"/><circle cx="79" cy="150" r="1" fill="#F5F0E6" opacity="0.35"/><circle cx="131" cy="174" r="1.3" fill="#F5F0E6" opacity="0.35"/><circle cx="186" cy="158" r="1.1" fill="#F5F0E6" opacity="0.35"/><circle cx="240" cy="170" r="1.2" fill="#F5F0E6" opacity="0.35"/><circle cx="296" cy="152" r="1" fill="#F5F0E6" opacity="0.35"/><circle cx="351" cy="176" r="1.3" fill="#F5F0E6" opacity="0.35"/><circle cx="406" cy="162" r="1.1" fill="#F5F0E6" opacity="0.35"/><circle cx="462" cy="172" r="1.2" fill="#F5F0E6" opacity="0.35"/><circle cx="518" cy="156" r="1" fill="#F5F0E6" opacity="0.35"/><circle cx="574" cy="168" r="1.3" fill="#F5F0E6" opacity="0.35"/><circle cx="622" cy="150" r="1.1" fill="#F5F0E6" opacity="0.35"/><circle cx="31" cy="210" r="1.1" fill="#F5F0E6" opacity="0.35"/><circle cx="83" cy="224" r="1.4" fill="#F5F0E6" opacity="0.35"/><circle cx="138" cy="206" r="1" fill="#F5F0E6" opacity="0.35"/><circle cx="193" cy="222" r="1.2" fill="#F5F0E6" opacity="0.35"/><circle cx="248" cy="210" r="1.1" fill="#F5F0E6" opacity="0.35"/><circle cx="303" cy="226" r="1.4" fill="#F5F0E6" opacity="0.35"/><circle cx="358" cy="208" r="1" fill="#F5F0E6" opacity="0.35"/><circle cx="413" cy="224" r="1.2" fill="#F5F0E6" opacity="0.35"/><circle cx="468" cy="212" r="1.1" fill="#F5F0E6" opacity="0.35"/><circle cx="524" cy="228" r="1.4" fill="#F5F0E6" opacity="0.35"/><circle cx="578" cy="214" r="1" fill="#F5F0E6" opacity="0.35"/><circle cx="631" cy="220" r="1.2" fill="#F5F0E6" opacity="0.35"/><circle cx="28" cy="262" r="1.3" fill="#F5F0E6" opacity="0.35"/><circle cx="82" cy="278" r="1.1" fill="#F5F0E6" opacity="0.35"/><circle cx="136" cy="260" r="1.2" fill="#F5F0E6" opacity="0.35"/><circle cx="191" cy="276" r="1" fill="#F5F0E6" opacity="0.35"/><circle cx="246" cy="264" r="1.3" fill="#F5F0E6" opacity="0.35"/><circle cx="301" cy="280" r="1.1" fill="#F5F0E6" opacity="0.35"/><circle cx="356" cy="262" r="1.2" fill="#F5F0E6" opacity="0.35"/><circle cx="411" cy="278" r="1" fill="#F5F0E6" opacity="0.35"/><circle cx="466" cy="266" r="1.3" fill="#F5F0E6" opacity="0.35"/><circle cx="521" cy="282" r="1.1" fill="#F5F0E6" opacity="0.35"/><circle cx="576" cy="264" r="1.2" fill="#F5F0E6" opacity="0.35"/><circle cx="631" cy="278" r="1" fill="#F5F0E6" opacity="0.35"/><circle cx="35" cy="316" r="1" fill="#F5F0E6" opacity="0.35"/><circle cx="89" cy="330" r="1.2" fill="#F5F0E6" opacity="0.35"/><circle cx="144" cy="318" r="1.1" fill="#F5F0E6" opacity="0.35"/><circle cx="199" cy="332" r="1.3" fill="#F5F0E6" opacity="0.35"/><circle cx="254" cy="320" r="1" fill="#F5F0E6" opacity="0.35"/><circle cx="309" cy="334" r="1.2" fill="#F5F0E6" opacity="0.35"/><circle cx="364" cy="322" r="1.1" fill="#F5F0E6" opacity="0.35"/><circle cx="419" cy="336" r="1.3" fill="#F5F0E6" opacity="0.35"/><circle cx="474" cy="324" r="1" fill="#F5F0E6" opacity="0.35"/><circle cx="529" cy="338" r="1.2" fill="#F5F0E6" opacity="0.35"/><circle cx="584" cy="326" r="1.1" fill="#F5F0E6" opacity="0.35"/><circle cx="37" cy="372" r="1.2" fill="#F5F0E6" opacity="0.35"/><circle cx="92" cy="388" r="1" fill="#F5F0E6" opacity="0.35"/><circle cx="147" cy="376" r="1.3" fill="#F5F0E6" opacity="0.35"/><circle cx="202" cy="390" r="1.1" fill="#F5F0E6" opacity="0.35"/><circle cx="257" cy="378" r="1.2" fill="#F5F0E6" opacity="0.35"/><circle cx="312" cy="392" r="1" fill="#F5F0E6" opacity="0.35"/><circle cx="367" cy="380" r="1.3" fill="#F5F0E6" opacity="0.35"/><circle cx="422" cy="394" r="1.1" fill="#F5F0E6" opacity="0.35"/><circle cx="477" cy="382" r="1.2" fill="#F5F0E6" opacity="0.35"/><circle cx="532" cy="396" r="1" fill="#F5F0E6" opacity="0.35"/><circle cx="587" cy="384" r="1.3" fill="#F5F0E6" opacity="0.35"/><path d="M81.0 46.0 H91.0 M86.0 41.0 V51.0" stroke="#F5F0E6" stroke-width="1" stroke-linecap="round" opacity="0.5"/><circle cx="86.0" cy="46.0" r="1.1" fill="#F5F0E6" opacity="0.5"/><path d="M234.0 150.0 H242.0 M238.0 146.0 V154.0" stroke="#F5F0E6" stroke-width="1" stroke-linecap="round" opacity="0.5"/><circle cx="238.0" cy="150.0" r="1.1" fill="#F5F0E6" opacity="0.5"/><path d="M398.0 62.0 H410.0 M404.0 56.0 V68.0" stroke="#F5F0E6" stroke-width="1" stroke-linecap="round" opacity="0.5"/><circle cx="404.0" cy="62.0" r="1.1" fill="#F5F0E6" opacity="0.5"/><path d="M552.0 196.0 H560.0 M556.0 192.0 V200.0" stroke="#F5F0E6" stroke-width="1" stroke-linecap="round" opacity="0.5"/><circle cx="556.0" cy="196.0" r="1.1" fill="#F5F0E6" opacity="0.5"/><path d="M115.0 300.0 H125.0 M120.0 295.0 V305.0" stroke="#F5F0E6" stroke-width="1" stroke-linecap="round" opacity="0.5"/><circle cx="120.0" cy="300.0" r="1.1" fill="#F5F0E6" opacity="0.5"/><path d="M488.0 330.0 H496.0 M492.0 326.0 V334.0" stroke="#F5F0E6" stroke-width="1" stroke-linecap="round" opacity="0.5"/><circle cx="492.0" cy="330.0" r="1.1" fill="#F5F0E6" opacity="0.5"/><path d="M312.0 52.0 H320.0 M316.0 48.0 V56.0" stroke="#F5F0E6" stroke-width="1" stroke-linecap="round" opacity="0.5"/><circle cx="316.0" cy="52.0" r="1.1" fill="#F5F0E6" opacity="0.5"/><path d="M62.0 240.0 H70.0 M66.0 236.0 V244.0" stroke="#F5F0E6" stroke-width="1" stroke-linecap="round" opacity="0.5"/><circle cx="66.0" cy="240.0" r="1.1" fill="#F5F0E6" opacity="0.5"/><circle cx="15.6" cy="400.5" r="0.6" fill="#FFFFFF" opacity="0.067"/><circle cx="97.2" cy="244.8" r="0.6" fill="#FFFFFF" opacity="0.076"/><circle cx="538.1" cy="122.8" r="0.6" fill="#FFFFFF" opacity="0.057"/><circle cx="344.4" cy="145.9" r="0.5" fill="#FFFFFF" opacity="0.057"/><circle cx="159.4" cy="30.5" r="0.4" fill="#FFFFFF" opacity="0.048"/><circle cx="28.7" cy="255.0" r="0.5" fill="#FFFFFF" opacity="0.080"/><circle cx="209.8" cy="113.1" r="0.4" fill="#FFFFFF" opacity="0.060"/><circle cx="316.1" cy="199.0" r="0.5" fill="#FFFFFF" opacity="0.057"/><circle cx="590.8" cy="414.6" r="0.5" fill="#FFFFFF" opacity="0.037"/><circle cx="539.3" cy="76.1" r="0.5" fill="#FFFFFF" opacity="0.068"/><circle cx="385.5" cy="55.6" r="0.5" fill="#FFFFFF" opacity="0.076"/><circle cx="292.3" cy="222.8" r="0.5" fill="#FFFFFF" opacity="0.060"/><circle cx="536.7" cy="314.8" r="0.5" fill="#FFFFFF" opacity="0.046"/><circle cx="377.3" cy="128.5" r="0.4" fill="#FFFFFF" opacity="0.041"/><circle cx="92.8" cy="11.7" r="0.5" fill="#FFFFFF" opacity="0.044"/><circle cx="354.5" cy="262.9" r="0.5" fill="#FFFFFF" opacity="0.080"/><circle cx="310.7" cy="354.8" r="0.4" fill="#FFFFFF" opacity="0.054"/><circle cx="601.3" cy="321.0" r="0.5" fill="#FFFFFF" opacity="0.054"/><circle cx="18.9" cy="341.0" r="0.6" fill="#FFFFFF" opacity="0.085"/><circle cx="312.4" cy="322.4" r="0.6" fill="#FFFFFF" opacity="0.069"/><circle cx="239.2" cy="6.0" r="0.5" fill="#FFFFFF" opacity="0.036"/><circle cx="436.2" cy="260.3" r="0.6" fill="#FFFFFF" opacity="0.071"/><circle cx="329.0" cy="61.8" r="0.6" fill="#FFFFFF" opacity="0.063"/><circle cx="625.7" cy="133.0" r="0.5" fill="#FFFFFF" opacity="0.075"/><circle cx="428.8" cy="216.6" r="0.4" fill="#FFFFFF" opacity="0.065"/><circle cx="169.1" cy="85.4" r="0.4" fill="#FFFFFF" opacity="0.073"/><circle cx="586.8" cy="227.6" r="0.4" fill="#FFFFFF" opacity="0.060"/><circle cx="598.2" cy="153.2" r="0.5" fill="#FFFFFF" opacity="0.054"/><circle cx="289.9" cy="188.3" r="0.5" fill="#FFFFFF" opacity="0.053"/><circle cx="315.7" cy="309.5" r="0.4" fill="#FFFFFF" opacity="0.054"/><circle cx="154.8" cy="423.3" r="0.5" fill="#FFFFFF" opacity="0.080"/><circle cx="411.7" cy="70.4" r="0.4" fill="#FFFFFF" opacity="0.043"/><circle cx="465.0" cy="245.9" r="0.4" fill="#FFFFFF" opacity="0.048"/><circle cx="533.5" cy="187.4" r="0.5" fill="#FFFFFF" opacity="0.050"/><circle cx="621.7" cy="76.7" r="0.4" fill="#FFFFFF" opacity="0.064"/><circle cx="14.4" cy="272.4" r="0.6" fill="#FFFFFF" opacity="0.064"/><circle cx="68.9" cy="140.4" r="0.5" fill="#FFFFFF" opacity="0.076"/><circle cx="182.4" cy="31.9" r="0.4" fill="#FFFFFF" opacity="0.047"/><circle cx="125.6" cy="205.2" r="0.5" fill="#FFFFFF" opacity="0.081"/><circle cx="367.1" cy="34.9" r="0.4" fill="#FFFFFF" opacity="0.039"/><circle cx="441.5" cy="100.2" r="0.6" fill="#FFFFFF" opacity="0.085"/><circle cx="69.5" cy="213.3" r="0.5" fill="#FFFFFF" opacity="0.078"/><circle cx="627.1" cy="286.5" r="0.5" fill="#FFFFFF" opacity="0.081"/><circle cx="620.2" cy="86.6" r="0.4" fill="#FFFFFF" opacity="0.078"/><circle cx="508.9" cy="387.6" r="0.4" fill="#FFFFFF" opacity="0.055"/><circle cx="403.3" cy="307.3" r="0.4" fill="#FFFFFF" opacity="0.061"/><circle cx="381.0" cy="302.5" r="0.5" fill="#FFFFFF" opacity="0.078"/><circle cx="33.1" cy="75.3" r="0.6" fill="#FFFFFF" opacity="0.059"/><circle cx="249.8" cy="137.5" r="0.4" fill="#FFFFFF" opacity="0.066"/><circle cx="434.3" cy="357.4" r="0.4" fill="#FFFFFF" opacity="0.082"/><circle cx="437.2" cy="313.2" r="0.4" fill="#FFFFFF" opacity="0.040"/><circle cx="577.3" cy="372.4" r="0.6" fill="#FFFFFF" opacity="0.044"/><circle cx="366.6" cy="234.0" r="0.5" fill="#FFFFFF" opacity="0.044"/><circle cx="444.8" cy="289.2" r="0.4" fill="#FFFFFF" opacity="0.060"/><circle cx="316.6" cy="138.2" r="0.4" fill="#FFFFFF" opacity="0.076"/><circle cx="148.0" cy="86.9" r="0.5" fill="#FFFFFF" opacity="0.053"/><circle cx="326.4" cy="142.0" r="0.4" fill="#FFFFFF" opacity="0.054"/><circle cx="515.4" cy="36.6" r="0.4" fill="#FFFFFF" opacity="0.047"/><circle cx="182.8" cy="100.4" r="0.4" fill="#FFFFFF" opacity="0.039"/><circle cx="475.9" cy="118.0" r="0.4" fill="#FFFFFF" opacity="0.037"/><circle cx="441.8" cy="184.4" r="0.5" fill="#FFFFFF" opacity="0.057"/><circle cx="386.7" cy="157.5" r="0.6" fill="#FFFFFF" opacity="0.059"/><circle cx="303.5" cy="11.1" r="0.6" fill="#FFFFFF" opacity="0.074"/><circle cx="544.1" cy="152.4" r="0.4" fill="#FFFFFF" opacity="0.054"/><circle cx="156.0" cy="27.3" r="0.5" fill="#FFFFFF" opacity="0.051"/><circle cx="614.5" cy="272.8" r="0.6" fill="#FFFFFF" opacity="0.068"/><circle cx="397.8" cy="305.8" r="0.4" fill="#FFFFFF" opacity="0.042"/><circle cx="190.5" cy="12.5" r="0.6" fill="#FFFFFF" opacity="0.043"/><circle cx="483.0" cy="298.3" r="0.4" fill="#FFFFFF" opacity="0.085"/><circle cx="187.7" cy="261.8" r="0.5" fill="#FFFFFF" opacity="0.067"/><circle cx="290.3" cy="142.0" r="0.5" fill="#FFFFFF" opacity="0.068"/><circle cx="130.0" cy="94.2" r="0.4" fill="#FFFFFF" opacity="0.074"/><rect x="0.5" y="0.5" width="639" height="431" fill="none" stroke="#2A3A6B" stroke-width="1"/><rect x="2.5" y="2.5" width="635" height="427" fill="none" stroke="#1D2A52" stroke-width="0.6" opacity="0.55"/><text x="26" y="9" font-family="'Segoe UI',Helvetica,Arial,'PingFang SC','Microsoft YaHei',sans-serif" font-size="5.5" fill="#C9A86A" opacity="0.13999999999999999" textLength="588">P R O F I L E   V E R S E   ✦   星夜鎁金   ✦   ZERO SERVER   ✦   GITHUB API   ✦P R O F I L E   V E R S E   ✦   星夜鎁金   ✦   ZERO SERVER   ✦   GITHUB API   ✦P R O F I L E   V E R S E   ✦   星夜鎁金   ✦   ZERO SERVER   ✦   GITHUB API   ✦</text><text x="26" y="422" font-family="'Segoe UI',Helvetica,Arial,'PingFang SC','Microsoft YaHei',sans-serif" font-size="5.5" fill="#C9A86A" opacity="0.13999999999999999" textLength="588">R E A L   D A T A   ✦   MIT LICENSE   ✦   每日自动刷新   ✦   零服务器   ✦R E A L   D A T A   ✦   MIT LICENSE   ✦   每日自动刷新   ✦   零服务器   ✦R E A L   D A T A   ✦   MIT LICENSE   ✦   每日自动刷新   ✦   零服务器   ✦</text><text x="8" y="405" font-family="'Segoe UI',Helvetica,Arial,'PingFang SC','Microsoft YaHei',sans-serif" font-size="5.5" fill="#C9A86A" opacity="0.13999999999999999" transform="rotate(-90 8 405)">P R O F I L E   V E R S E   ✦   P R O F I L E   V E R S E   ✦   P R O F I L E   V E R S E   ✦   P R O F I L E   V E R S E   ✦   P R O F I L E   V E R S E   ✦   P R O F I L E   V E R S E   ✦   </text><text x="628" y="405" font-family="'Segoe UI',Helvetica,Arial,'PingFang SC','Microsoft YaHei',sans-serif" font-size="5.5" fill="#C9A86A" opacity="0.13999999999999999" transform="rotate(-90 628 405)">P R O F I L E   V E R S E   ✦   P R O F I L E   V E R S E   ✦   P R O F I L E   V E R S E   ✦   P R O F I L E   V E R S E   ✦   P R O F I L E   V E R S E   ✦   P R O F I L E   V E R S E   ✦   </text><path d="M10.5 10.5 h11 M10.5 10.5 v11" fill="none" stroke="#C9A86A" stroke-width="1" opacity="0.6"/><path d="M618.5 10.5 h11 M629.5 10.5 v11" fill="none" stroke="#C9A86A" stroke-width="1" opacity="0.6"/><path d="M10.5 410.5 h11 M10.5 421.5 v11" fill="none" stroke="#C9A86A" stroke-width="1" opacity="0.6"/><path d="M618.5 410.5 h11 M629.5 421.5 v11" fill="none" stroke="#C9A86A" stroke-width="1" opacity="0.6"/><path d="M22.5 22.5 l2.4 -2.4 l2.4 2.4 l-2.4 2.4 z" fill="none" stroke="#C9A86A" stroke-width="0.7" opacity="0.5"/><path d="M617.5 22.5 l2.4 -2.4 l2.4 2.4 l-2.4 2.4 z" fill="none" stroke="#C9A86A" stroke-width="0.7" opacity="0.5"/><path d="M22.5 409.5 l2.4 -2.4 l2.4 2.4 l-2.4 2.4 z" fill="none" stroke="#C9A86A" stroke-width="0.7" opacity="0.5"/><path d="M617.5 409.5 l2.4 -2.4 l2.4 2.4 l-2.4 2.4 z" fill="none" stroke="#C9A86A" stroke-width="0.7" opacity="0.5"/>
  <defs><linearGradient id="gtimp" x1="0" y1="0" x2="0" y2="1"><stop offset="0" stop-color="#E4C87F"/><stop offset="1" stop-color="#C9A86A"/></linearGradient><linearGradient id="ppanel" x1="0" y1="0" x2="0" y2="1"><stop offset="0" stop-color="#16204A"/><stop offset="1" stop-color="#0E1530"/></linearGradient></defs>

  <path d="M26 40 l4 -5 l4 5 l-4 5 z" fill="#E4C87F" opacity="0.95"/>
  <text x="40" y="44" font-family="'Segoe UI',Helvetica,Arial,'PingFang SC','Microsoft YaHei',sans-serif" font-size="14.5" font-weight="700" letter-spacing="3" fill="#E4C87F">OPEN SOURCE IMPACT</text>
  <text x="610" y="44" text-anchor="end" font-family="'Segoe UI',Helvetica,Arial,'PingFang SC','Microsoft YaHei',sans-serif" font-size="10.5" letter-spacing="1" fill="#7C87A3">更新于 2026-10-02</text>
  <text x="40" y="70" font-family="'Segoe UI',Helvetica,Arial,'PingFang SC','Microsoft YaHei',sans-serif" font-size="17" font-weight="600" fill="#F5F0E6">X33834</text>
  <text x="610" y="70" text-anchor="end" font-family="'Segoe UI',Helvetica,Arial,'PingFang SC','Microsoft YaHei',sans-serif" font-size="11" letter-spacing="1" fill="#7C87A3">GitHub · 已合并 PR</text>

  <line x1="40" y1="84" x2="600" y2="84" stroke="#2A3A6B" stroke-width="1"/>
  <line x1="286" y1="83" x2="354" y2="83" stroke="#C9A86A" stroke-width="1.4" opacity="0.8"/>
  <path d="M320 80 l4 4 l-4 4 l-4 -4 z" fill="#C9A86A" opacity="0.9"/>

  <rect x="30" y="98" width="180" height="82" rx="10" fill="url(#ppanel)" stroke="#2A3A6B"/>
  <line x1="88" y1="98" x2="152" y2="98" stroke="#C9A86A" stroke-width="2" opacity="0.7"/>
  <text x="194" y="114" text-anchor="end" font-family="'Segoe UI',Helvetica,Arial,sans-serif" font-size="9.5" letter-spacing="1.5" fill="#6E7893">01</text>
  <text x="120" y="148" text-anchor="middle" font-family="'Segoe UI',Helvetica,Arial,sans-serif" font-size="28" font-weight="600" fill="url(#gtimp)">1</text>
  <text x="120" y="168" text-anchor="middle" font-family="'PingFang SC','Microsoft YaHei','Segoe UI',sans-serif" font-size="11" letter-spacing="2" fill="#9AA3B5">合并 PR</text>

  <rect x="230" y="98" width="180" height="82" rx="10" fill="url(#ppanel)" stroke="#2A3A6B"/>
  <line x1="288" y1="98" x2="352" y2="98" stroke="#C9A86A" stroke-width="2" opacity="0.7"/>
  <text x="394" y="114" text-anchor="end" font-family="'Segoe UI',Helvetica,Arial,sans-serif" font-size="9.5" letter-spacing="1.5" fill="#6E7893">02</text>
  <text x="320" y="148" text-anchor="middle" font-family="'Segoe UI',Helvetica,Arial,sans-serif" font-size="28" font-weight="600" fill="url(#gtimp)">1</text>
  <text x="320" y="168" text-anchor="middle" font-family="'PingFang SC','Microsoft YaHei','Segoe UI',sans-serif" font-size="11" letter-spacing="2" fill="#9AA3B5">贡献仓库</text>

  <rect x="430" y="98" width="180" height="82" rx="10" fill="url(#ppanel)" stroke="#2A3A6B"/>
  <line x1="488" y1="98" x2="552" y2="98" stroke="#C9A86A" stroke-width="2" opacity="0.7"/>
  <text x="594" y="114" text-anchor="end" font-family="'Segoe UI',Helvetica,Arial,sans-serif" font-size="9.5" letter-spacing="1.5" fill="#6E7893">03</text>
  <text x="520" y="148" text-anchor="middle" font-family="'Segoe UI',Helvetica,Arial,sans-serif" font-size="24" font-weight="600" fill="url(#gtimp)">≈3★</text>
  <text x="520" y="168" text-anchor="middle" font-family="'PingFang SC','Microsoft YaHei','Segoe UI',sans-serif" font-size="11" letter-spacing="2" fill="#9AA3B5">影响力 · Σ 仓库 star</text>

  <path d="M30 200 l3.5 -4 l3.5 4 l-3.5 4 z" fill="#C9A86A" opacity="0.9"/>
  <text x="42" y="204" font-family="'PingFang SC','Microsoft YaHei','Segoe UI',sans-serif" font-size="13" font-weight="600" letter-spacing="2" fill="#C9A86A">贡献分档 · 按仓库 star</text>
  <rect x="30" y="220" width="108" height="48" rx="9" fill="#C9A86A" fill-opacity="0.05" stroke="#C9A86A" stroke-opacity="0.3"/><line x1="56" y1="220" x2="112" y2="220" stroke="#E4C87F" stroke-width="1.6" opacity="0.35"/><circle cx="84" cy="230" r="2.2" fill="#E4C87F" opacity="0.4"/><text x="84" y="243" text-anchor="middle" font-family="'Segoe UI',Helvetica,Arial,'PingFang SC','Microsoft YaHei',sans-serif" font-size="11.5" font-weight="700" fill="#E4C87F">S ≥50k★</text><text x="84" y="259" text-anchor="middle" font-family="'Segoe UI',Helvetica,Arial,'PingFang SC','Microsoft YaHei',sans-serif" font-size="10.5" fill="#6E7893">0 仓 · 0 PR</text><rect x="148" y="220" width="108" height="48" rx="9" fill="#5B8DEF" fill-opacity="0.05" stroke="#5B8DEF" stroke-opacity="0.3"/><line x1="174" y1="220" x2="230" y2="220" stroke="#8FB4F5" stroke-width="1.6" opacity="0.35"/><circle cx="202" cy="230" r="2.2" fill="#8FB4F5" opacity="0.4"/><text x="202" y="243" text-anchor="middle" font-family="'Segoe UI',Helvetica,Arial,'PingFang SC','Microsoft YaHei',sans-serif" font-size="11.5" font-weight="700" fill="#8FB4F5">A ≥10k★</text><text x="202" y="259" text-anchor="middle" font-family="'Segoe UI',Helvetica,Arial,'PingFang SC','Microsoft YaHei',sans-serif" font-size="10.5" fill="#6E7893">0 仓 · 0 PR</text><rect x="266" y="220" width="108" height="48" rx="9" fill="#4EC9A0" fill-opacity="0.05" stroke="#4EC9A0" stroke-opacity="0.3"/><line x1="292" y1="220" x2="348" y2="220" stroke="#7ED9B8" stroke-width="1.6" opacity="0.35"/><circle cx="320" cy="230" r="2.2" fill="#7ED9B8" opacity="0.4"/><text x="320" y="243" text-anchor="middle" font-family="'Segoe UI',Helvetica,Arial,'PingFang SC','Microsoft YaHei',sans-serif" font-size="11.5" font-weight="700" fill="#7ED9B8">B ≥1k★</text><text x="320" y="259" text-anchor="middle" font-family="'Segoe UI',Helvetica,Arial,'PingFang SC','Microsoft YaHei',sans-serif" font-size="10.5" fill="#6E7893">0 仓 · 0 PR</text><rect x="384" y="220" width="108" height="48" rx="9" fill="#B48AE8" fill-opacity="0.05" stroke="#B48AE8" stroke-opacity="0.3"/><line x1="410" y1="220" x2="466" y2="220" stroke="#C3A6EF" stroke-width="1.6" opacity="0.35"/><circle cx="438" cy="230" r="2.2" fill="#C3A6EF" opacity="0.4"/><text x="438" y="243" text-anchor="middle" font-family="'Segoe UI',Helvetica,Arial,'PingFang SC','Microsoft YaHei',sans-serif" font-size="11.5" font-weight="700" fill="#C3A6EF">C ≥100★</text><text x="438" y="259" text-anchor="middle" font-family="'Segoe UI',Helvetica,Arial,'PingFang SC','Microsoft YaHei',sans-serif" font-size="10.5" fill="#6E7893">0 仓 · 0 PR</text><rect x="502" y="220" width="108" height="48" rx="9" fill="#6E7893" fill-opacity="0.1" stroke="#6E7893" stroke-opacity="0.75"/><line x1="528" y1="220" x2="584" y2="220" stroke="#B9C0CE" stroke-width="1.6" opacity="0.9"/><circle cx="556" cy="230" r="2.2" fill="#B9C0CE" opacity="0.85"/><text x="556" y="243" text-anchor="middle" font-family="'Segoe UI',Helvetica,Arial,'PingFang SC','Microsoft YaHei',sans-serif" font-size="11.5" font-weight="700" fill="#B9C0CE">D &lt;100★</text><text x="556" y="259" text-anchor="middle" font-family="'Segoe UI',Helvetica,Arial,'PingFang SC','Microsoft YaHei',sans-serif" font-size="10.5" fill="#B9C0CE">1 仓 · 1 PR</text>

  <path d="M30 296 l3.5 -4 l3.5 4 l-3.5 4 z" fill="#C9A86A" opacity="0.9"/>
  <text x="42" y="300" font-family="'PingFang SC','Microsoft YaHei','Segoe UI',sans-serif" font-size="13" font-weight="600" letter-spacing="2" fill="#C9A86A">TOP 贡献仓库</text>
  <text x="30" y="326" font-family="'Segoe UI',Helvetica,Arial,'PingFang SC','Microsoft YaHei',sans-serif" font-size="9.5" letter-spacing="1.5" fill="#6E7893" opacity="0.8">01</text><text x="46" y="326" font-family="'Segoe UI',Helvetica,Arial,'PingFang SC','Microsoft YaHei',sans-serif" font-size="12.5" fill="#F5F0E6">Morningstar202604/profile-cards</text><rect x="522" y="317" width="46" height="16" rx="8" fill="#C9A86A" fill-opacity="0.14" stroke="#C9A86A" stroke-opacity="0.45"/><text x="545" y="324" text-anchor="middle" font-family="'Segoe UI',Helvetica,Arial,'PingFang SC','Microsoft YaHei',sans-serif" font-size="10.5" font-weight="600" fill="#D5DAE4">1 PR</text><text x="486" y="326" text-anchor="end" font-family="'Segoe UI',Helvetica,Arial,'PingFang SC','Microsoft YaHei',sans-serif" font-size="12" font-weight="600" fill="#D5DAE4">★3</text><line x1="30" y1="334" x2="600" y2="334" stroke="#2A3A6B" stroke-width="0.7" stroke-dasharray="1 5" opacity="0.5"/>
  <circle cx="30" cy="364" r="2.4" fill="#C9A86A" opacity="0.9"/><text x="40" y="368" font-family="'Segoe UI',Helvetica,Arial,'PingFang SC','Microsoft YaHei',sans-serif" font-size="11" fill="#9AA3B5">最近合并：Morningstar202604/profile-cards #2 · 2026-09-28</text>

  <line x1="40" y1="394" x2="600" y2="394" stroke="#2A3A6B" stroke-width="0.8"/>
  <text x="40" y="410" font-family="'PingFang SC','Microsoft YaHei','Segoe UI',sans-serif" font-size="10" fill="#6E7893">数据来源 GitHub API · 每日自动刷新 · 零服务器自动生成</text>
  <text x="600" y="410" text-anchor="end" font-family="'Segoe UI',Helvetica,Arial,sans-serif" font-size="10" letter-spacing="1.5" fill="#6E7893">impact-card · v1.5.0</text>
</svg>
