<svg xmlns="http://www.w3.org/2000/svg" width="960" height="240" viewBox="0 0 960 240" role="img" aria-label="X33834"><defs><linearGradient id="bg" x1="0" y1="0" x2="0" y2="1"><stop offset="0" stop-color="#FFFFFF"/><stop offset="0.5" stop-color="#FBF9F4"/><stop offset="1" stop-color="#F4F1EA"/></linearGradient><radialGradient id="nebG" cx="0.22" cy="0.10" r="0.62"><stop offset="0" stop-color="#B08D3E" stop-opacity="0.22"/><stop offset="1" stop-color="#FFFFFF" stop-opacity="0"/></radialGradient><radialGradient id="nebB" cx="0.92" cy="0.88" r="0.6"><stop offset="0" stop-color="#DCCBA8" stop-opacity="0.24"/><stop offset="1" stop-color="#FFFFFF" stop-opacity="0"/></radialGradient><radialGradient id="glow" cx="0.5" cy="0.5" r="0.62"><stop offset="0" stop-color="#B08D3E" stop-opacity="0.18"/><stop offset="1" stop-color="#FFFFFF" stop-opacity="0"/></radialGradient><linearGradient id="gtext" x1="0" y1="0" x2="1" y2="0"><stop offset="0" stop-color="#8F6F2C"/><stop offset="0.5" stop-color="#B08D3E"/><stop offset="1" stop-color="#8F6F2C"/></linearGradient><filter id="blur1" x="-40%" y="-40%" width="180%" height="180%"><feGaussianBlur stdDeviation="8"/></filter><filter id="blur2" x="-30%" y="-30%" width="160%" height="160%"><feGaussianBlur stdDeviation="3.4"/></filter></defs><rect width="960" height="240" fill="url(#bg)"/><rect width="960" height="240" fill="url(#nebG)"/><rect width="960" height="240" fill="url(#nebB)"/><rect width="960" height="240" fill="url(#glow)"/><circle cx="435.0" cy="133.4" r="1.7" fill="#C9A86A" opacity="0.29"/><circle cx="815.2" cy="50.5" r="1.7" fill="#C9A86A" opacity="0.36"/><circle cx="756.6" cy="29.1" r="1.3" fill="#C9A86A" opacity="0.17"/><circle cx="516.5" cy="207.4" r="0.7" fill="#C9A86A" opacity="0.35"/><circle cx="382.0" cy="109.5" r="1.0" fill="#C9A86A" opacity="0.36"/><circle cx="793.1" cy="22.1" r="0.7" fill="#C9A86A" opacity="0.19"/><circle cx="236.4" cy="14.7" r="1.7" fill="#C9A86A" opacity="0.24"/><circle cx="565.9" cy="51.8" r="1.0" fill="#C9A86A" opacity="0.36"/><circle cx="479.8" cy="156.4" r="1.7" fill="#C9A86A" opacity="0.37"/><circle cx="392.0" cy="131.5" r="0.7" fill="#C9A86A" opacity="0.39"/><circle cx="305.6" cy="59.4" r="1.3" fill="#C9A86A" opacity="0.13"/><circle cx="539.6" cy="32.2" r="0.7" fill="#C9A86A" opacity="0.44"/><circle cx="372.9" cy="222.6" r="0.7" fill="#C9A86A" opacity="0.20"/><circle cx="883.1" cy="19.7" r="1.7" fill="#C9A86A" opacity="0.49"/><circle cx="383.2" cy="24.4" r="1.0" fill="#C9A86A" opacity="0.42"/><circle cx="262.7" cy="27.5" r="1.3" fill="#C9A86A" opacity="0.13"/><circle cx="395.1" cy="214.7" r="1.0" fill="#C9A86A" opacity="0.21"/><circle cx="103.4" cy="21.4" r="1.7" fill="#C9A86A" opacity="0.19"/><circle cx="536.0" cy="108.2" r="1.0" fill="#C9A86A" opacity="0.49"/><circle cx="734.4" cy="101.9" r="1.7" fill="#C9A86A" opacity="0.16"/><circle cx="405.2" cy="55.7" r="1.3" fill="#C9A86A" opacity="0.45"/><circle cx="928.3" cy="140.8" r="0.7" fill="#C9A86A" opacity="0.20"/><circle cx="380.2" cy="199.4" r="0.7" fill="#C9A86A" opacity="0.14"/><circle cx="146.2" cy="106.9" r="0.7" fill="#C9A86A" opacity="0.41"/><circle cx="318.5" cy="74.4" r="0.7" fill="#C9A86A" opacity="0.15"/><circle cx="205.0" cy="150.6" r="0.7" fill="#C9A86A" opacity="0.35"/><circle cx="358.9" cy="109.5" r="1.7" fill="#C9A86A" opacity="0.44"/><circle cx="136.1" cy="94.5" r="1.0" fill="#C9A86A" opacity="0.24"/><circle cx="223.6" cy="144.7" r="1.0" fill="#C9A86A" opacity="0.18"/><circle cx="601.8" cy="132.1" r="1.7" fill="#C9A86A" opacity="0.46"/><circle cx="577.7" cy="102.4" r="0.7" fill="#C9A86A" opacity="0.16"/><circle cx="491.7" cy="65.2" r="1.7" fill="#C9A86A" opacity="0.22"/><circle cx="785.6" cy="141.6" r="1.3" fill="#C9A86A" opacity="0.32"/><circle cx="885.2" cy="226.9" r="1.0" fill="#C9A86A" opacity="0.21"/><circle cx="536.0" cy="198.9" r="0.7" fill="#C9A86A" opacity="0.23"/><circle cx="874.0" cy="53.7" r="0.7" fill="#C9A86A" opacity="0.15"/><circle cx="396.4" cy="63.8" r="0.7" fill="#C9A86A" opacity="0.19"/><circle cx="356.1" cy="136.2" r="1.0" fill="#C9A86A" opacity="0.16"/><circle cx="138.7" cy="108.9" r="1.3" fill="#C9A86A" opacity="0.37"/><circle cx="660.5" cy="138.9" r="1.0" fill="#C9A86A" opacity="0.34"/><circle cx="879.9" cy="114.4" r="1.3" fill="#C9A86A" opacity="0.39"/><circle cx="916.9" cy="12.8" r="0.7" fill="#C9A86A" opacity="0.30"/><circle cx="697.6" cy="79.4" r="0.7" fill="#C9A86A" opacity="0.15"/><circle cx="523.5" cy="173.1" r="1.0" fill="#C9A86A" opacity="0.42"/><circle cx="871.8" cy="86.8" r="1.7" fill="#C9A86A" opacity="0.46"/><circle cx="830.3" cy="101.4" r="0.7" fill="#C9A86A" opacity="0.45"/><circle cx="548.7" cy="148.0" r="1.7" fill="#C9A86A" opacity="0.26"/><circle cx="19.8" cy="24.2" r="0.7" fill="#C9A86A" opacity="0.36"/><circle cx="945.7" cy="205.1" r="1.3" fill="#C9A86A" opacity="0.27"/><circle cx="701.9" cy="138.1" r="1.7" fill="#C9A86A" opacity="0.30"/><circle cx="518.9" cy="124.2" r="0.7" fill="#C9A86A" opacity="0.24"/><circle cx="90.8" cy="13.0" r="0.7" fill="#C9A86A" opacity="0.31"/><circle cx="588.1" cy="214.2" r="1.3" fill="#C9A86A" opacity="0.46"/><circle cx="355.3" cy="40.1" r="1.0" fill="#C9A86A" opacity="0.32"/><circle cx="719.6" cy="84.7" r="1.7" fill="#C9A86A" opacity="0.31"/><circle cx="236.0" cy="98.7" r="1.3" fill="#C9A86A" opacity="0.20"/><circle cx="414.8" cy="188.5" r="1.0" fill="#C9A86A" opacity="0.45"/><circle cx="370.9" cy="138.6" r="1.3" fill="#C9A86A" opacity="0.20"/><circle cx="135.0" cy="86.6" r="0.7" fill="#C9A86A" opacity="0.39"/><circle cx="904.8" cy="70.0" r="1.0" fill="#C9A86A" opacity="0.16"/><circle cx="453.0" cy="215.4" r="1.7" fill="#C9A86A" opacity="0.27"/><circle cx="498.9" cy="158.6" r="1.7" fill="#C9A86A" opacity="0.24"/><circle cx="790.3" cy="70.3" r="0.7" fill="#C9A86A" opacity="0.38"/><circle cx="273.3" cy="87.3" r="0.7" fill="#C9A86A" opacity="0.36"/><circle cx="390.5" cy="50.5" r="1.3" fill="#C9A86A" opacity="0.21"/><circle cx="141.0" cy="18.5" r="0.7" fill="#C9A86A" opacity="0.29"/><circle cx="602.7" cy="154.7" r="1.3" fill="#C9A86A" opacity="0.48"/><circle cx="654.2" cy="52.7" r="1.7" fill="#C9A86A" opacity="0.22"/><circle cx="682.2" cy="177.1" r="0.7" fill="#C9A86A" opacity="0.19"/><circle cx="265.1" cy="85.4" r="1.0" fill="#C9A86A" opacity="0.27"/><circle cx="755.6" cy="211.0" r="0.7" fill="#C9A86A" opacity="0.28"/><circle cx="850.7" cy="94.9" r="1.7" fill="#C9A86A" opacity="0.29"/><circle cx="598.5" cy="211.8" r="1.7" fill="#C9A86A" opacity="0.33"/><circle cx="624.1" cy="120.6" r="1.3" fill="#C9A86A" opacity="0.30"/><circle cx="622.8" cy="53.9" r="0.7" fill="#C9A86A" opacity="0.20"/><circle cx="857.6" cy="227.6" r="1.3" fill="#C9A86A" opacity="0.32"/><circle cx="754.5" cy="79.8" r="0.7" fill="#C9A86A" opacity="0.25"/><circle cx="86.1" cy="106.8" r="1.7" fill="#C9A86A" opacity="0.41"/><circle cx="468.2" cy="14.4" r="0.7" fill="#C9A86A" opacity="0.28"/><circle cx="41.1" cy="127.4" r="1.0" fill="#C9A86A" opacity="0.30"/><circle cx="951.8" cy="209.7" r="1.7" fill="#C9A86A" opacity="0.48"/><circle cx="473.0" cy="220.6" r="0.7" fill="#C9A86A" opacity="0.41"/><circle cx="422.8" cy="133.2" r="1.0" fill="#C9A86A" opacity="0.32"/><circle cx="804.4" cy="133.4" r="1.3" fill="#C9A86A" opacity="0.38"/><circle cx="909.3" cy="202.9" r="1.0" fill="#C9A86A" opacity="0.24"/><circle cx="141.2" cy="130.0" r="1.3" fill="#C9A86A" opacity="0.34"/><circle cx="197.7" cy="128.0" r="0.7" fill="#C9A86A" opacity="0.35"/><circle cx="34.2" cy="225.1" r="1.7" fill="#C9A86A" opacity="0.33"/><circle cx="942.0" cy="35.3" r="0.7" fill="#C9A86A" opacity="0.38"/><circle cx="70.2" cy="128.7" r="1.7" fill="#C9A86A" opacity="0.47"/><circle cx="763.6" cy="98.5" r="1.0" fill="#C9A86A" opacity="0.30"/><circle cx="127.9" cy="105.1" r="1.7" fill="#C9A86A" opacity="0.32"/><circle cx="110.5" cy="102.0" r="0.7" fill="#C9A86A" opacity="0.47"/><circle cx="130.2" cy="182.6" r="0.7" fill="#C9A86A" opacity="0.13"/><circle cx="154.8" cy="10.7" r="1.3" fill="#C9A86A" opacity="0.24"/><circle cx="343.4" cy="146.8" r="0.7" fill="#C9A86A" opacity="0.31"/><circle cx="557.6" cy="198.8" r="1.3" fill="#C9A86A" opacity="0.39"/><circle cx="670.1" cy="204.8" r="0.7" fill="#C9A86A" opacity="0.26"/><circle cx="398.3" cy="126.6" r="1.0" fill="#C9A86A" opacity="0.32"/><circle cx="823.5" cy="127.6" r="1.0" fill="#C9A86A" opacity="0.32"/><circle cx="811.6" cy="145.0" r="1.0" fill="#C9A86A" opacity="0.21"/><circle cx="707.3" cy="189.6" r="1.0" fill="#C9A86A" opacity="0.24"/><circle cx="305.3" cy="214.7" r="1.0" fill="#C9A86A" opacity="0.42"/><circle cx="191.6" cy="29.7" r="1.0" fill="#C9A86A" opacity="0.17"/><circle cx="91.2" cy="94.9" r="1.7" fill="#C9A86A" opacity="0.44"/><circle cx="406.0" cy="184.9" r="1.0" fill="#C9A86A" opacity="0.20"/><circle cx="600.8" cy="186.9" r="0.7" fill="#C9A86A" opacity="0.20"/><circle cx="652.2" cy="212.1" r="1.3" fill="#C9A86A" opacity="0.16"/><circle cx="485.4" cy="177.8" r="1.0" fill="#C9A86A" opacity="0.43"/><circle cx="463.1" cy="13.4" r="1.7" fill="#C9A86A" opacity="0.18"/><circle cx="182.2" cy="53.7" r="1.0" fill="#C9A86A" opacity="0.50"/><circle cx="883.0" cy="29.3" r="0.7" fill="#C9A86A" opacity="0.17"/><circle cx="650.8" cy="25.4" r="0.7" fill="#C9A86A" opacity="0.24"/><circle cx="448.8" cy="123.4" r="1.7" fill="#C9A86A" opacity="0.20"/><circle cx="360.3" cy="150.0" r="0.7" fill="#C9A86A" opacity="0.44"/><circle cx="179.1" cy="109.7" r="1.3" fill="#C9A86A" opacity="0.27"/><circle cx="192.2" cy="45.0" r="0.7" fill="#C9A86A" opacity="0.24"/><circle cx="88.1" cy="196.6" r="1.7" fill="#C9A86A" opacity="0.34"/><circle cx="188.3" cy="139.0" r="1.3" fill="#C9A86A" opacity="0.43"/><circle cx="251.8" cy="212.1" r="1.0" fill="#C9A86A" opacity="0.43"/><path d="M394.7 182.4 H406.7 M400.7 176.4 V188.4" stroke="#8F6F2C" stroke-width="1" stroke-linecap="round" opacity="0.6"/><circle cx="400.7" cy="182.4" r="1.1" fill="#8F6F2C" opacity="0.6"/><path d="M639.6 160.4 H647.6 M643.6 156.4 V164.4" stroke="#8F6F2C" stroke-width="1" stroke-linecap="round" opacity="0.6"/><circle cx="643.6" cy="160.4" r="1.1" fill="#8F6F2C" opacity="0.6"/><path d="M396.8 152.8 H404.8 M400.8 148.8 V156.8" stroke="#8F6F2C" stroke-width="1" stroke-linecap="round" opacity="0.6"/><circle cx="400.8" cy="152.8" r="1.1" fill="#8F6F2C" opacity="0.6"/><path d="M725.8 81.3 H733.8 M729.8 77.3 V85.3" stroke="#8F6F2C" stroke-width="1" stroke-linecap="round" opacity="0.6"/><circle cx="729.8" cy="81.3" r="1.1" fill="#8F6F2C" opacity="0.6"/><path d="M62.9 90.5 H74.9 M68.9 84.5 V96.5" stroke="#8F6F2C" stroke-width="1" stroke-linecap="round" opacity="0.6"/><circle cx="68.9" cy="90.5" r="1.1" fill="#8F6F2C" opacity="0.6"/><path d="M813.3 38.4 H823.3 M818.3 33.4 V43.4" stroke="#8F6F2C" stroke-width="1" stroke-linecap="round" opacity="0.6"/><circle cx="818.3" cy="38.4" r="1.1" fill="#8F6F2C" opacity="0.6"/><circle cx="20.5" cy="220.2" r="0.6" fill="#8F6F2C" opacity="0.067"/><circle cx="143.7" cy="135.7" r="0.6" fill="#8F6F2C" opacity="0.076"/><circle cx="809.2" cy="69.4" r="0.6" fill="#8F6F2C" opacity="0.057"/><circle cx="516.8" cy="81.9" r="0.5" fill="#8F6F2C" opacity="0.057"/><circle cx="237.5" cy="19.3" r="0.4" fill="#8F6F2C" opacity="0.048"/><circle cx="40.2" cy="141.2" r="0.5" fill="#8F6F2C" opacity="0.080"/><circle cx="313.7" cy="64.2" r="0.4" fill="#8F6F2C" opacity="0.060"/><circle cx="474.2" cy="110.7" r="0.5" fill="#8F6F2C" opacity="0.057"/><circle cx="888.8" cy="227.8" r="0.5" fill="#8F6F2C" opacity="0.037"/><circle cx="811.1" cy="44.0" r="0.5" fill="#8F6F2C" opacity="0.068"/><circle cx="578.8" cy="32.9" r="0.5" fill="#8F6F2C" opacity="0.076"/><circle cx="438.3" cy="123.7" r="0.5" fill="#8F6F2C" opacity="0.060"/><circle cx="807.1" cy="173.6" r="0.5" fill="#8F6F2C" opacity="0.046"/><circle cx="566.5" cy="72.5" r="0.4" fill="#8F6F2C" opacity="0.041"/><circle cx="137.0" cy="9.1" r="0.5" fill="#8F6F2C" opacity="0.044"/><circle cx="532.1" cy="145.4" r="0.5" fill="#8F6F2C" opacity="0.080"/><circle cx="466.0" cy="195.3" r="0.4" fill="#8F6F2C" opacity="0.054"/><circle cx="904.7" cy="177.0" r="0.5" fill="#8F6F2C" opacity="0.054"/><circle cx="25.5" cy="187.9" r="0.6" fill="#8F6F2C" opacity="0.085"/><circle cx="468.5" cy="177.8" r="0.6" fill="#8F6F2C" opacity="0.069"/><circle cx="358.0" cy="6.0" r="0.5" fill="#8F6F2C" opacity="0.036"/><circle cx="655.4" cy="144.1" r="0.6" fill="#8F6F2C" opacity="0.071"/><circle cx="493.6" cy="36.3" r="0.6" fill="#8F6F2C" opacity="0.063"/><circle cx="941.5" cy="74.9" r="0.5" fill="#8F6F2C" opacity="0.075"/><circle cx="644.3" cy="120.3" r="0.4" fill="#8F6F2C" opacity="0.065"/><circle cx="252.2" cy="49.1" r="0.4" fill="#8F6F2C" opacity="0.073"/><circle cx="882.7" cy="126.3" r="0.4" fill="#8F6F2C" opacity="0.060"/><circle cx="899.9" cy="85.9" r="0.5" fill="#8F6F2C" opacity="0.054"/><circle cx="434.6" cy="104.9" r="0.5" fill="#8F6F2C" opacity="0.053"/><circle cx="473.6" cy="170.8" r="0.4" fill="#8F6F2C" opacity="0.054"/><circle cx="230.7" cy="232.5" r="0.5" fill="#8F6F2C" opacity="0.080"/><circle cx="618.5" cy="41.0" r="0.4" fill="#8F6F2C" opacity="0.043"/><circle cx="699.0" cy="136.2" r="0.4" fill="#8F6F2C" opacity="0.048"/><circle cx="802.2" cy="104.5" r="0.5" fill="#8F6F2C" opacity="0.050"/><circle cx="935.5" cy="44.4" r="0.4" fill="#8F6F2C" opacity="0.064"/><circle cx="18.7" cy="150.6" r="0.6" fill="#8F6F2C" opacity="0.064"/><circle cx="100.9" cy="79.0" r="0.5" fill="#8F6F2C" opacity="0.076"/><circle cx="272.2" cy="20.1" r="0.4" fill="#8F6F2C" opacity="0.047"/><circle cx="186.6" cy="114.2" r="0.5" fill="#8F6F2C" opacity="0.081"/><circle cx="551.1" cy="21.7" r="0.4" fill="#8F6F2C" opacity="0.039"/><circle cx="663.4" cy="57.1" r="0.6" fill="#8F6F2C" opacity="0.085"/><circle cx="101.8" cy="118.5" r="0.5" fill="#8F6F2C" opacity="0.078"/><circle cx="943.6" cy="158.3" r="0.5" fill="#8F6F2C" opacity="0.081"/><circle cx="933.2" cy="49.7" r="0.4" fill="#8F6F2C" opacity="0.078"/><circle cx="765.2" cy="213.1" r="0.4" fill="#8F6F2C" opacity="0.055"/><circle cx="605.7" cy="169.5" r="0.4" fill="#8F6F2C" opacity="0.061"/><circle cx="572.1" cy="166.9" r="0.5" fill="#8F6F2C" opacity="0.078"/><circle cx="46.9" cy="43.6" r="0.6" fill="#8F6F2C" opacity="0.059"/><circle cx="374.0" cy="77.4" r="0.4" fill="#8F6F2C" opacity="0.066"/><circle cx="652.5" cy="196.7" r="0.4" fill="#8F6F2C" opacity="0.082"/><circle cx="656.9" cy="172.8" r="0.4" fill="#8F6F2C" opacity="0.040"/><circle cx="868.5" cy="204.9" r="0.6" fill="#8F6F2C" opacity="0.044"/><circle cx="550.4" cy="129.8" r="0.5" fill="#8F6F2C" opacity="0.044"/><circle cx="668.3" cy="159.7" r="0.4" fill="#8F6F2C" opacity="0.060"/><circle cx="474.9" cy="77.8" r="0.4" fill="#8F6F2C" opacity="0.076"/><circle cx="220.4" cy="49.9" r="0.5" fill="#8F6F2C" opacity="0.053"/><circle cx="489.6" cy="79.8" r="0.4" fill="#8F6F2C" opacity="0.054"/><circle cx="775.0" cy="22.6" r="0.4" fill="#8F6F2C" opacity="0.047"/><circle cx="272.9" cy="57.2" r="0.4" fill="#8F6F2C" opacity="0.039"/><circle cx="715.4" cy="66.8" r="0.4" fill="#8F6F2C" opacity="0.037"/><circle cx="663.8" cy="102.8" r="0.5" fill="#8F6F2C" opacity="0.057"/><circle cx="580.7" cy="88.2" r="0.6" fill="#8F6F2C" opacity="0.059"/><circle cx="455.1" cy="8.8" r="0.6" fill="#8F6F2C" opacity="0.074"/><circle cx="818.4" cy="85.5" r="0.4" fill="#8F6F2C" opacity="0.054"/><circle cx="232.4" cy="17.6" r="0.5" fill="#8F6F2C" opacity="0.051"/><circle cx="924.6" cy="150.8" r="0.6" fill="#8F6F2C" opacity="0.068"/><circle cx="597.4" cy="168.8" r="0.4" fill="#8F6F2C" opacity="0.042"/><circle cx="284.4" cy="9.5" r="0.6" fill="#8F6F2C" opacity="0.043"/><circle cx="726.1" cy="164.7" r="0.4" fill="#8F6F2C" opacity="0.085"/><circle cx="280.3" cy="144.8" r="0.5" fill="#8F6F2C" opacity="0.067"/><circle cx="435.2" cy="79.8" r="0.5" fill="#8F6F2C" opacity="0.068"/><circle cx="193.2" cy="53.9" r="0.4" fill="#8F6F2C" opacity="0.074"/><rect x="0.5" y="0.5" width="959" height="239" fill="none" stroke="#E5DFD2" stroke-width="1"/><text x="26" y="9" font-family="'Segoe UI',Helvetica,Arial,'PingFang SC','Microsoft YaHei',sans-serif" font-size="5.5" fill="#B08D3E" opacity="0.13999999999999999" textLength="908">P R O F I L E   V E R S E   ✦   星夜鎁金   ✦   ZERO SERVER   ✦   GITHUB API   ✦P R O F I L E   V E R S E   ✦   星夜鎁金   ✦   ZERO SERVER   ✦   GITHUB API   ✦P R O F I L E   V E R S E   ✦   星夜鎁金   ✦   ZERO SERVER   ✦   GITHUB API   ✦P R O F I L E   V E R S E   ✦   星夜鎁金   ✦   ZERO SERVER   ✦   GITHUB API   ✦P R O F I L E   V E R S E   ✦   星夜鎁金   ✦   ZERO SERVER   ✦   GITHUB API   ✦</text><text x="26" y="230" font-family="'Segoe UI',Helvetica,Arial,'PingFang SC','Microsoft YaHei',sans-serif" font-size="5.5" fill="#B08D3E" opacity="0.13999999999999999" textLength="908">R E A L   D A T A   ✦   MIT LICENSE   ✦   每日自动刷新   ✦   零服务器   ✦R E A L   D A T A   ✦   MIT LICENSE   ✦   每日自动刷新   ✦   零服务器   ✦R E A L   D A T A   ✦   MIT LICENSE   ✦   每日自动刷新   ✦   零服务器   ✦R E A L   D A T A   ✦   MIT LICENSE   ✦   每日自动刷新   ✦   零服务器   ✦R E A L   D A T A   ✦   MIT LICENSE   ✦   每日自动刷新   ✦   零服务器   ✦</text><text x="8" y="183" font-family="'Segoe UI',Helvetica,Arial,'PingFang SC','Microsoft YaHei',sans-serif" font-size="5.5" fill="#B08D3E" opacity="0.13999999999999999" transform="rotate(-90 8 183)">P R O F I L E   V E R S E   ✦   P R O F I L E   V E R S E   ✦   </text><text x="948" y="183" font-family="'Segoe UI',Helvetica,Arial,'PingFang SC','Microsoft YaHei',sans-serif" font-size="5.5" fill="#B08D3E" opacity="0.13999999999999999" transform="rotate(-90 948 183)">P R O F I L E   V E R S E   ✦   P R O F I L E   V E R S E   ✦   </text><path d="M10.5 10.5 h11 M10.5 10.5 v11" fill="none" stroke="#B08D3E" stroke-width="1" opacity="0.6"/><path d="M938.5 10.5 h11 M949.5 10.5 v11" fill="none" stroke="#B08D3E" stroke-width="1" opacity="0.6"/><path d="M10.5 218.5 h11 M10.5 229.5 v11" fill="none" stroke="#B08D3E" stroke-width="1" opacity="0.6"/><path d="M938.5 218.5 h11 M949.5 229.5 v11" fill="none" stroke="#B08D3E" stroke-width="1" opacity="0.6"/><path d="M22.5 22.5 l2.4 -2.4 l2.4 2.4 l-2.4 2.4 z" fill="none" stroke="#B08D3E" stroke-width="0.7" opacity="0.5"/><path d="M937.5 22.5 l2.4 -2.4 l2.4 2.4 l-2.4 2.4 z" fill="none" stroke="#B08D3E" stroke-width="0.7" opacity="0.5"/><path d="M22.5 217.5 l2.4 -2.4 l2.4 2.4 l-2.4 2.4 z" fill="none" stroke="#B08D3E" stroke-width="0.7" opacity="0.5"/><path d="M937.5 217.5 l2.4 -2.4 l2.4 2.4 l-2.4 2.4 z" fill="none" stroke="#B08D3E" stroke-width="0.7" opacity="0.5"/><path d="M -60 208 Q 300 26 640 118 T 1030 52" fill="none" stroke="#B08D3E" stroke-width="1.6" stroke-opacity="0.55" stroke-dasharray="1 9" stroke-linecap="round"/><path d="M 640 118 Q 700 132 762 108" fill="none" stroke="#8F6F2C" stroke-width="2.2" stroke-opacity="0.85" stroke-linecap="round"/><circle cx="762" cy="108" r="3.2" fill="#8F6F2C"/><circle cx="762" cy="108" r="8" fill="#8F6F2C" opacity="0.25"/><path d="M 900 40 Q 934 62 962 56" fill="none" stroke="#B08D3E" stroke-width="1.2" stroke-opacity="0.45" stroke-linecap="round"/><circle cx="962" cy="56" r="1.8" fill="#8F6F2C" opacity="0.7"/><text x="480" y="126" text-anchor="middle" font-family="'Segoe UI',Helvetica,Arial,'PingFang SC','Microsoft YaHei',sans-serif" font-size="54" font-weight="800" fill="#8F6F2C" filter="url(#blur1)">X33834</text><text x="480" y="126" text-anchor="middle" font-family="'Segoe UI',Helvetica,Arial,'PingFang SC','Microsoft YaHei',sans-serif" font-size="54" font-weight="800" fill="#B08D3E" filter="url(#blur2)">X33834</text><text x="480" y="126" text-anchor="middle" font-family="'Segoe UI',Helvetica,Arial,'PingFang SC','Microsoft YaHei',sans-serif" font-size="54" font-weight="800" fill="url(#gtext)">X33834</text><line x1="430" y1="150" x2="530" y2="150" stroke="#B08D3E" stroke-width="1.3" opacity="0.85"/><path d="M480 145 l4.5 4.5 l-4.5 4.5 l-4.5 -4.5 z" fill="#B08D3E" opacity="0.95"/><text x="480" y="180" text-anchor="middle" font-family="'Segoe UI',Helvetica,Arial,'PingFang SC','Microsoft YaHei',sans-serif" font-size="14.5" letter-spacing="3" fill="#5F6B7F">Code under the stars, ship with the dawn</text><text x="28" y="224" font-family="'Segoe UI',Helvetica,Arial,'PingFang SC','Microsoft YaHei',sans-serif" font-size="10.5" letter-spacing="1" fill="#8A93A6">PROFILE VERSE</text><text x="932" y="224" text-anchor="end" font-family="'Segoe UI',Helvetica,Arial,'PingFang SC','Microsoft YaHei',sans-serif" font-size="10.5" letter-spacing="1.5" fill="#8A93A6">banner-card · v1.5.0</text></svg>